<?xml version="1.0" standalone="no"?>
<!DOCTYPE svg PUBLIC "-//W3C//DTD SVG 20010904//EN"
 "http://www.w3.org/TR/2001/REC-SVG-20010904/DTD/svg10.dtd">
<svg version="1.0" xmlns="http://www.w3.org/2000/svg"
 width="512.000000pt" height="512.000000pt" viewBox="0 0 512.000000 512.000000"
 preserveAspectRatio="xMidYMid meet">
<metadata>
Created by potrace 1.14, written by Peter Selinger 2001-2017
</metadata>
<g transform="translate(0.000000,512.000000) scale(0.100000,-0.100000)"
fill="#000000" stroke="none">
<path d="M480 5104 c-175 -46 -329 -168 -408 -324 -77 -152 -71 22 -72 -2220
0 -2006 0 -2016 21 -2090 62 -224 225 -387 449 -449 74 -21 84 -21 2091 -21
l2017 0 79 23 c174 50 317 166 392 318 23 46 43 94 45 105 3 12 9 39 15 60 8
27 11 649 10 2059 0 2241 5 2060 -70 2213 -76 156 -220 272 -399 321 -74 21
-83 21 -2095 20 -1722 0 -2028 -2 -2075 -15z"/>
</g>
</svg>
